<?xml version="1.0" standalone="no"?>
<!DOCTYPE svg PUBLIC "-//W3C//DTD SVG 20010904//EN"
 "http://www.w3.org/TR/2001/REC-SVG-20010904/DTD/svg10.dtd">
<svg version="1.0" xmlns="http://www.w3.org/2000/svg"
 width="862.000000pt" height="360.000000pt" viewBox="0 0 862.000000 360.000000"
 preserveAspectRatio="xMidYMid meet">

<g transform="translate(0.000000,360.000000) scale(0.100000,-0.100000)"
fill="#000000" stroke="none">
<path d="M0 1800 l0 -1800 1624 0 c1073 0 1627 3 1631 10 3 6 43 10 88 10 65
1 87 5 105 19 12 11 22 22 22 26 0 8 -71 96 -113 140 -16 17 -36 40 -44 52 -9
13 -24 23 -34 23 -10 0 -21 5 -24 10 -4 6 35 10 110 10 75 0 114 -4 110 -10
-3 -5 -15 -10 -26 -10 -10 0 -19 -5 -19 -11 0 -14 88 -119 99 -119 4 0 23 21
41 48 19 26 38 48 42 50 16 7 7 32 -11 32 -11 0 -23 5 -26 10 -4 6 25 10 80
10 55 0 84 -4 80 -10 -3 -5 -16 -10 -29 -10 -15 0 -32 -14 -52 -41 -16 -22
-36 -48 -44 -57 -9 -9 -28 -36 -44 -59 -15 -23 -43 -58 -62 -77 -19 -19 -34
-37 -34 -41 0 -3 1157 -5 2570 -5 l2570 0 0 1800 0 1800 -4305 0 -4305 0 0
-1800z m4250 1520 c177 -6 353 -17 420 -27 122 -18 147 -19 195 -9 l30 7 -29
-14 -30 -13 36 -17 c20 -9 50 -20 67 -23 17 -4 34 -11 38 -17 7 -12 -29 -8
-197 23 -166 29 -644 44 -848 25 -286 -26 -457 -62 -717 -148 -159 -53 -352
-150 -421 -212 -6 -5 -37 -32 -69 -60 -32 -27 -63 -56 -69 -63 -6 -7 -38 -41
-72 -75 -33 -34 -64 -70 -67 -79 -10 -29 -27 -21 -27 12 0 18 6 33 15 36 9 4
15 19 15 35 0 35 65 122 119 159 20 14 38 28 39 33 2 4 9 7 16 7 7 0 21 10 32
21 39 44 142 103 254 146 63 24 123 48 133 54 9 5 52 18 95 28 42 10 97 27
122 36 25 9 81 26 125 37 44 11 94 26 110 33 17 7 82 21 145 30 63 10 133 23
155 31 49 16 19 16 385 4z m760 -60 c0 -5 19 -10 43 -11 41 -1 42 -1 13 -11
-21 -8 -34 -8 -48 1 -10 6 -28 11 -40 12 -13 0 -32 4 -43 9 -15 6 -8 9 28 9
26 1 47 -3 47 -9z m270 -70 c252 -83 437 -179 550 -287 19 -18 38 -33 41 -33
15 0 99 -93 99 -109 0 -10 9 -26 20 -36 11 -10 20 -24 20 -31 0 -8 11 -21 25
-30 23 -15 25 -21 19 -60 -5 -36 -3 -44 9 -44 9 0 20 8 26 18 9 16 10 16 16 0
4 -10 4 -37 1 -60 -4 -24 -10 -74 -14 -113 -4 -38 -15 -81 -23 -95 -9 -14 -20
-38 -23 -54 -21 -88 -242 -313 -374 -380 -29 -14 -52 -30 -52 -34 0 -13 -85
-60 -175 -97 -265 -107 -593 -165 -929 -165 -214 0 -169 24 69 36 184 10 518
78 581 119 11 7 88 35 170 61 150 47 233 82 297 126 100 68 241 204 233 225
-3 8 15 34 41 59 l47 45 1 70 c1 57 4 74 19 85 14 9 16 17 9 26 -6 7 -22 51
-37 98 -15 47 -36 97 -47 112 -10 15 -19 31 -19 36 0 5 -9 17 -19 26 -11 10
-30 39 -41 64 -38 81 -167 183 -281 223 -42 15 -88 33 -102 40 -116 62 -174
90 -233 109 -37 12 -80 30 -95 41 -15 10 -33 19 -41 19 -8 1 -6 6 7 16 27 21
84 14 205 -26z m-678 -306 c22 -6 26 -82 6 -89 -7 -2 -73 -5 -145 -8 l-133 -4
0 47 c0 26 2 49 5 52 7 7 246 9 267 2z m-173 -189 c47 -14 100 -29 116 -34 17
-5 109 -30 205 -56 96 -26 198 -54 226 -61 28 -8 59 -21 70 -29 19 -15 19 -15
0 -30 -13 -10 -43 -15 -89 -15 -64 0 -68 -1 -62 -20 4 -13 1 -22 -9 -26 -24
-9 -23 -239 0 -265 28 -31 8 -42 -64 -36 -36 4 -67 9 -70 12 -3 3 2 13 11 23
24 26 25 260 2 268 -10 4 -13 13 -10 25 6 17 1 19 -50 19 -51 0 -56 -2 -50
-19 3 -11 1 -22 -5 -26 -14 -9 -13 -248 1 -262 7 -7 9 -19 5 -29 -6 -14 -16
-16 -73 -11 -36 4 -68 9 -71 12 -3 3 2 13 11 23 26 28 25 256 0 271 -17 10
-17 12 0 25 16 12 15 14 -14 20 -17 3 -217 6 -445 6 -402 0 -445 3 -418 30 8
8 337 107 502 151 41 11 97 28 125 38 68 24 57 24 156 -4z m-1945 -224 c1 -70
5 -93 17 -103 9 -7 19 -32 23 -54 3 -23 13 -54 21 -70 16 -32 20 -84 6 -84
-15 0 -58 65 -85 128 -22 52 -26 77 -26 157 0 98 12 147 32 127 6 -6 11 -51
12 -101z m1456 -20 c8 -16 6 -21 -10 -26 -19 -6 -20 -15 -20 -131 0 -102 3
-126 15 -130 17 -7 20 -30 5 -39 -6 -4 -40 -3 -76 0 l-65 7 16 24 c21 33 22
262 1 270 -8 3 -12 12 -10 19 5 12 25 16 111 23 13 1 27 -6 33 -17z m237 3 c4
-10 -1 -22 -10 -29 -25 -18 -25 -249 0 -263 10 -6 14 -16 10 -26 -7 -17 -32
-19 -106 -8 -42 7 -44 8 -28 24 23 23 25 265 3 274 -24 9 -7 33 27 37 74 9 98
7 104 -9z m240 0 c3 -8 1 -20 -6 -27 -16 -16 -15 -241 1 -267 21 -33 -1 -43
-76 -35 -63 6 -83 19 -51 31 12 5 15 30 15 135 0 111 -2 129 -17 138 -34 19 7
38 85 40 30 1 44 -4 49 -15z m-1819 -332 c2 -12 9 -22 15 -22 7 -1 28 -14 47
-30 19 -17 38 -30 43 -30 5 0 37 -20 71 -44 33 -24 77 -51 96 -61 19 -9 44
-25 55 -35 60 -54 304 -151 500 -200 108 -27 355 -62 553 -79 50 -4 95 -11 99
-14 19 -20 -390 5 -412 24 -5 5 -27 9 -48 9 -49 0 -203 31 -342 69 -141 39
-348 126 -490 205 -90 51 -185 141 -185 175 0 6 -6 11 -14 11 -13 0 -26 20
-26 42 0 20 35 2 38 -20z m2372 -32 c7 -13 21 -20 38 -20 16 0 33 -5 40 -12
18 -18 15 -55 -5 -63 -10 -3 -330 -3 -711 1 l-693 7 3 26 c2 21 9 27 37 29 23
2 35 9 38 22 6 23 37 25 760 28 473 2 482 2 493 -18z m1819 -760 c114 -24 139
-25 162 -4 10 9 26 14 35 10 14 -5 16 -15 10 -53 -3 -25 -6 -70 -6 -99 0 -48
-2 -54 -20 -54 -12 0 -25 10 -30 23 -32 70 -68 104 -157 144 -105 46 -294 42
-364 -8 -23 -16 -29 -28 -29 -59 0 -61 34 -79 316 -171 285 -92 359 -138 359
-224 0 -38 -5 -49 -33 -75 -84 -76 -206 -103 -472 -103 -163 0 -210 4 -289 21
l-94 22 -32 -20 c-18 -11 -37 -20 -44 -20 -8 0 -11 39 -11 126 l0 125 27 -3
c23 -3 29 -10 41 -50 18 -64 97 -136 176 -161 73 -23 261 -25 323 -3 73 26 93
44 93 85 0 70 -49 99 -333 195 -216 73 -276 105 -304 163 -24 52 -5 105 50
137 99 58 176 73 382 75 114 0 172 -4 244 -19z m-1972 -10 c192 -32 272 -92
237 -177 -28 -67 -107 -106 -268 -134 -119 -21 -141 -29 -80 -29 53 0 162 -24
210 -45 21 -10 50 -31 63 -47 26 -32 71 -117 71 -134 0 -6 11 -21 25 -34 18
-17 38 -24 77 -25 70 -3 70 -4 18 -22 -30 -10 -88 -15 -175 -16 -114 -1 -138
2 -185 21 -47 19 -59 30 -82 72 -16 28 -28 56 -28 63 0 19 -44 101 -66 123
-26 25 -63 43 -98 46 -47 5 -45 28 3 28 55 0 136 32 169 67 23 24 27 36 27 90
0 71 -18 98 -91 132 -35 17 -64 21 -149 21 l-105 0 -20 -32 c-17 -28 -20 -51
-20 -150 0 -101 2 -118 17 -127 17 -9 17 -10 0 -28 -14 -16 -17 -39 -17 -124
0 -134 9 -153 78 -175 28 -9 52 -18 52 -20 0 -2 -117 -4 -260 -4 -171 0 -260
4 -260 10 0 6 13 13 30 16 57 12 60 26 60 319 l0 266 -25 24 c-17 18 -36 25
-67 26 l-43 2 40 7 c58 11 789 3 862 -10z m1061 11 c9 -5 -4 -10 -38 -13 -86
-9 -85 -3 -88 -286 -2 -136 1 -265 5 -287 8 -36 13 -41 53 -53 25 -7 54 -17
65 -22 12 -5 -103 -9 -280 -9 -279 0 -329 5 -235 24 19 4 45 13 58 21 22 14
22 15 22 294 l0 279 -26 20 c-18 14 -41 21 -70 21 -24 0 -44 4 -44 9 0 12 560
14 578 2z m-3853 -6 c-5 -2 -22 -6 -37 -9 l-27 -6 -1 -305 0 -305 25 -6 c14
-3 22 -10 19 -15 -7 -11 -381 -12 -388 0 -3 4 6 13 19 19 l25 12 0 289 0 289
-23 15 c-13 8 -37 17 -53 20 -16 2 79 4 211 5 132 0 236 -1 230 -3z m360 -10
c175 -37 213 -63 205 -140 -2 -22 -39 -57 -87 -80 -40 -20 -179 -55 -218 -55
-16 0 -37 -4 -44 -9 -18 -12 -6 -15 134 -31 170 -20 274 -59 313 -118 27 -41
27 -41 -3 -82 -42 -57 -96 -82 -235 -109 -86 -16 -247 -24 -255 -12 -4 7 3 11
17 11 68 1 151 53 163 103 4 15 11 30 16 33 12 7 11 44 -1 44 -5 0 -10 9 -10
21 0 11 -17 35 -37 54 -36 33 -48 37 -150 54 -28 5 -60 14 -70 20 -15 9 -13
10 15 11 39 0 86 22 125 58 24 23 27 32 27 93 0 58 -3 72 -24 92 -28 28 -67
45 -116 50 -19 2 10 5 65 5 57 1 130 -4 170 -13z m1166 -175 c107 -33 118 -59
119 -291 0 -164 -2 -158 73 -160 40 -1 38 -1 -23 -15 -85 -19 -223 -15 -270 9
-51 26 -88 57 -72 64 8 3 12 33 12 98 0 77 -3 94 -16 99 -15 6 -15 8 0 25 13
14 16 33 14 76 -4 85 -26 98 -171 106 -99 5 -90 6 79 7 166 2 201 -1 255 -18z
m-458 -10 c14 -11 29 -20 34 -20 4 0 21 -10 36 -23 57 -45 3 -88 -112 -89 -91
-1 -114 5 -135 37 -15 23 -15 27 -1 49 17 26 84 56 146 65 4 1 18 -8 32 -19z
m222 -198 c-6 -4 -28 -14 -50 -21 -112 -37 -158 -74 -153 -122 6 -63 115 -95
217 -63 33 10 18 -14 -17 -28 -141 -55 -348 -48 -427 15 -48 38 -48 75 1 115
44 37 109 56 269 82 39 7 84 15 100 20 40 11 71 12 60 2z m1922 -228 c-3 -3
-12 -4 -19 -1 -8 3 -5 6 6 6 11 1 17 -2 13 -5z m-2079 -441 c2 -145 4 -153 22
-153 12 0 20 -7 20 -17 0 -14 -11 -15 -97 -11 -54 3 -122 3 -152 -1 -71 -10
-147 4 -193 36 -35 24 -38 30 -38 73 0 41 4 52 30 74 54 45 117 55 265 43 27
-2 30 1 33 31 3 29 0 33 -28 38 -68 14 1 43 95 40 l40 -1 3 -152z m-1670 112
c33 -10 58 -25 68 -41 16 -24 16 -26 -7 -50 -13 -14 -42 -30 -65 -36 l-42 -12
44 -29 c25 -16 47 -40 50 -53 7 -27 31 -44 62 -44 11 0 25 -7 32 -15 11 -13 2
-15 -72 -15 -98 0 -119 11 -149 74 -23 50 -52 66 -115 66 l-45 0 3 -52 c3 -49
5 -53 31 -56 15 -2 27 -7 27 -12 0 -16 -41 -21 -144 -18 -103 3 -132 16 -74
33 l33 10 3 109 c3 119 -1 127 -63 141 -27 6 -28 8 -10 16 33 15 372 3 433
-16z m4020 6 c16 -8 22 -20 20 -34 -2 -17 -11 -23 -41 -25 -31 -3 -38 0 -46
21 -15 39 -93 46 -173 15 -73 -28 -30 -64 113 -94 150 -32 204 -67 179 -115
-29 -53 -173 -84 -322 -68 -101 10 -120 20 -116 58 3 23 7 26 43 26 33 0 40
-4 45 -25 7 -31 52 -43 133 -35 77 8 107 20 107 44 0 30 -21 40 -126 62 -133
27 -188 55 -192 96 -4 36 27 63 93 81 52 14 253 9 283 -7z m-1332 -38 c9 -36
20 -43 72 -43 60 0 52 -18 -10 -22 l-53 -3 -3 -77 c-3 -73 -2 -78 20 -83 13
-3 37 -5 53 -3 36 4 46 -14 13 -24 -42 -11 -138 -8 -173 6 l-34 15 -3 83 -3
83 -32 3 c-39 4 -44 22 -7 22 18 0 37 12 58 35 23 26 39 35 63 35 27 0 34 -5
39 -27z m-2164 -37 c73 -18 109 -43 105 -76 l-2 -25 -139 -3 c-78 -1 -145 -7
-152 -13 -20 -17 -6 -36 44 -59 47 -22 80 -23 196 -4 29 5 37 3 31 -5 -29 -47
-254 -58 -333 -17 -48 26 -72 55 -72 90 0 39 37 78 90 95 106 34 147 37 232
17z m475 3 c78 -14 93 -31 93 -111 0 -66 16 -88 63 -88 l32 -1 -25 -14 c-29
-17 -100 -19 -149 -5 -23 6 -51 5 -93 -5 -85 -20 -178 -3 -199 36 -20 38 41
70 171 89 72 11 90 19 90 40 0 42 -118 51 -140 10 -13 -24 -62 -35 -91 -20
-21 12 -21 12 -3 31 17 17 117 45 168 48 11 1 48 -4 83 -10z m2180 0 c107 -26
153 -60 153 -114 0 -70 -98 -118 -238 -116 -138 1 -232 48 -232 116 0 83 178
147 317 114z m1293 -4 c68 -18 105 -45 105 -76 l0 -24 -141 -3 c-110 -2 -145
-6 -154 -17 -17 -21 0 -40 56 -61 43 -16 92 -16 182 2 19 4 32 2 32 -4 0 -39
-263 -54 -328 -19 -74 41 -92 89 -51 141 24 31 52 44 124 61 70 17 112 17 175
0z m673 -2 c84 -3 145 -9 141 -14 -3 -5 -16 -9 -30 -9 -29 0 -30 -4 -6 -29 28
-31 39 -46 51 -69 16 -29 37 -28 67 5 62 68 74 93 44 93 -10 0 -22 4 -25 10
-4 6 23 10 75 10 52 0 79 -4 75 -10 -3 -5 -14 -10 -24 -10 -11 0 -43 -30 -77
-72 -132 -166 -131 -166 -253 -18 -30 36 -61 70 -70 76 -24 18 -63 20 -89 5
-17 -9 -42 -11 -83 -6 -55 6 -60 5 -84 -21 -19 -21 -25 -37 -25 -74 0 -44 2
-49 30 -59 17 -5 30 -15 30 -20 0 -14 -196 -15 -204 -2 -3 5 5 16 19 25 45 30
30 139 -21 152 -24 6 -25 8 -10 19 9 7 44 16 78 19 57 7 63 6 79 -15 15 -21
19 -21 34 -9 25 21 87 39 110 33 11 -3 86 -8 168 -10z m765 6 c71 -17 100 -31
113 -56 25 -47 11 -53 -133 -53 -73 0 -139 -4 -147 -9 -20 -13 -5 -46 27 -61
46 -21 135 -24 186 -7 54 19 71 5 24 -19 -42 -23 -190 -31 -255 -14 -71 17
-113 53 -113 95 0 18 3 40 6 49 9 25 72 58 133 72 73 16 102 16 159 3z"/>
<path d="M2873 261 c-107 -66 17 -189 141 -141 24 9 26 14 26 74 0 54 -3 67
-19 76 -32 17 -113 12 -148 -9z"/>
<path d="M1257 355 c-10 -24 -8 -77 2 -94 7 -11 24 -13 70 -8 72 6 111 28 111
61 0 29 -34 45 -115 53 -52 5 -63 3 -68 -12z"/>
<path d="M1875 283 c-26 -6 -66 -43 -59 -54 7 -12 165 -11 183 0 8 5 11 16 7
29 -9 27 -72 39 -131 25z"/>
<path d="M2405 191 c-80 -14 -111 -51 -59 -71 34 -13 67 -13 99 2 19 9 25 19
25 45 0 20 -5 33 -12 32 -7 -1 -31 -5 -53 -8z"/>
<path d="M4533 284 c-13 -3 -32 -18 -43 -34 -43 -61 -11 -134 65 -145 84 -13
145 26 145 92 0 50 -35 83 -95 87 -27 3 -60 2 -72 0z"/>
<path d="M5823 282 c-31 -9 -65 -40 -58 -52 8 -12 165 -13 184 -1 8 5 11 16 8
25 -12 30 -78 44 -134 28z"/>
<path d="M7260 272 c-57 -28 -46 -46 30 -50 121 -6 167 18 100 53 -38 20 -87
19 -130 -3z"/>
</g>
</svg>
